<svg xmlns="http://www.w3.org/2000/svg" width="32" height="32" viewBox="0 0 32 32" fill="none">
  <path
    d="M22.4985 16.3208C21.5691 10.5557 16.4071 6.44877 10.6537 6.79257C10.391 6.80681 10.1283 6.83161 9.86568 6.86697C5.95998 7.37458 2.7975 9.83358 1.22379 13.1441C1.01315 11.6466 1.10991 10.1232 1.50844 8.66258C1.90696 7.20196 2.59925 5.83332 3.54506 4.63634C7.42434 -0.313195 14.5687 -1.3381 19.5036 2.34628C20.3065 2.94483 21.0208 3.64875 21.6263 4.43807C24.2085 7.80614 24.5826 12.4535 22.4985 16.3208Z"
    fill="currentcolor"></path>
  <path
    d="M18.9834 28.9652C17.3106 30.4957 15.1885 31.4769 12.9151 31.7703C6.75721 32.5714 1.08216 28.2126 0.239608 22.0371C-0.0615369 19.8709 0.279984 17.6659 1.22372 15.6833C2.79721 12.3729 5.95982 9.91393 9.86568 9.4064C10.1283 9.37125 10.391 9.34642 10.6537 9.33195C8.02031 11.7263 6.57489 15.3439 7.09502 19.1579C7.36521 21.1733 8.17938 23.0825 9.45414 24.6899C11.6921 27.5037 15.21 29.1915 18.9834 28.9652Z"
    fill="currentcolor"></path>
  <path
    d="M22.1363 27.737C21.8741 27.7714 21.6113 27.7972 21.3483 27.8108C17.5752 28.0372 14.0572 26.3497 11.8196 23.5351C16.0987 24.5833 20.8613 23.0804 23.7776 19.361C24.187 18.8402 24.5505 18.2863 24.8639 17.7055C26.9484 13.8385 26.5747 9.19061 23.991 5.82225C28.0126 7.12214 31.1497 10.6381 31.76 15.1057C32.6026 21.2814 28.2945 26.9383 22.1363 27.737Z"
    fill="currentcolor"></path>
</svg>